<svg xmlns="http://www.w3.org/2000/svg" viewBox="0 0 200 600">
  <path d="M100 20
           C60 20, 40 80, 80 120
           C120 160, 140 200, 100 240
           C60 280, 40 320, 80 360
           C120 400, 160 440, 120 480
           C80 520, 40 560, 100 580
           C160 560, 120 480, 140 440
           C160 400, 120 360, 160 320
           C200 280, 160 240, 120 200
           C80 160, 60 120, 100 80
           C140 40, 120 20, 100 20
           Z"
        fill="none" stroke="black" stroke-width="12"/>
</svg>
